# xmcd CD database file
#
# Track frame offsets:
#	150
#	23844
#	40028
#	61209
#	80378
#	110622
#	126250
#	149010
#	170305
#	179698
#	200800
#	221037
#	237085
#	255745
#
# Disc length: 3696 seconds
#
# Revision: 2
# Processed by: cddbd v1.5.2PL0 Copyright (c) Steve Scherf et al.
# Submitted via: Feurio! 1.68 - http://www.feurio.com
#
DISCID=cf0e6e0e
DTITLE=Tilman Rossmy Quartett - Seitdem man mich...
DYEAR=2003
DGENRE=Country
TTITLE0=Augen nicht auf
TTITLE1=Der Stoff
TTITLE2=Junkie
TTITLE3=Adieu meine Liebe
TTITLE4=Du bist es
TTITLE5=Wenn die Nachtigall singt
TTITLE6=Hör auf die Flöte
TTITLE7=Auf den Wein
TTITLE8=Komm füll die Gläser
TTITLE9=Nichts als Nichts
TTITLE10=Chartres
TTITLE11=Den süßen Duft der Liebe zu verbreiten
TTITLE12=Schiff in der Wüste
TTITLE13=Mango Papaya
EXTD=
EXTT0=
EXTT1=
EXTT2=
EXTT3=
EXTT4=
EXTT5=
EXTT6=
EXTT7=
EXTT8=
EXTT9=
EXTT10=
EXTT11=
EXTT12=
EXTT13=
PLAYORDER=
